# xmcd
#
# Track frame offsets: 
#        150
#        17134
#        35452
#        55075
#        70397
#        84209
#        98710
#        110643
#        128972
#        144249
#        164723
#        181026
#        196457
#        217207
#
# Disc length: 3200 seconds
#
# Revision: 0
# Processed by: cddbd v1.5.2PL0 Copyright (c) Steve Scherf et al.
# Submitted via: ExactAudioCopy v0.99pb5
#
DISCID=c70c7e0e
DTITLE=Clay Potter - A Good Time For A Change
DYEAR=2003
DGENRE=Country
TTITLE0=The Heat
TTITLE1=A Good Time For A Change
TTITLE2=Rainbow Inn
TTITLE3=You've Got No Business
TTITLE4=Mattie
TTITLE5=Baby Come Back
TTITLE6=There You Go
TTITLE7=Very First Waltz
TTITLE8=Love's Gonna Change Your Mind
TTITLE9=In Your Window
TTITLE10=Going Nowhere
TTITLE11=That's Enough
TTITLE12=Daddy
TTITLE13=Bonus* Texass Song
EXTD=
EXTT0=
EXTT1=
EXTT2=
EXTT3=
EXTT4=
EXTT5=
EXTT6=
EXTT7=
EXTT8=
EXTT9=
EXTT10=
EXTT11=
EXTT12=
EXTT13=
PLAYORDER=
